<?xml version="1.0" encoding="UTF-8" standalone="no"?>
<!-- Created with Inkscape (http://www.inkscape.org/) -->
<svg
   xmlns:dc="http://purl.org/dc/elements/1.1/"
   xmlns:cc="http://creativecommons.org/ns#"
   xmlns:rdf="http://www.w3.org/1999/02/22-rdf-syntax-ns#"
   xmlns:svg="http://www.w3.org/2000/svg"
   xmlns="http://www.w3.org/2000/svg"
   xmlns:sodipodi="http://sodipodi.sourceforge.net/DTD/sodipodi-0.dtd"
   xmlns:inkscape="http://www.inkscape.org/namespaces/inkscape"
   width="9283.4639"
   height="1133.8583"
   id="svg2"
   sodipodi:version="0.32"
   inkscape:version="0.46"
   sodipodi:docname="openaustraliaorg-labs.svg"
   inkscape:output_extension="org.inkscape.output.svg.inkscape"
   version="1.0"
   inkscape:export-filename="openaustraliaorg-labs.png"
   inkscape:export-xdpi="2.54"
   inkscape:export-ydpi="2.54">
  <defs
     id="defs4">
    <inkscape:perspective
       sodipodi:type="inkscape:persp3d"
       inkscape:vp_x="0 : 526.18109 : 1"
       inkscape:vp_y="0 : 1000 : 0"
       inkscape:vp_z="744.09448 : 526.18109 : 1"
       inkscape:persp3d-origin="372.04724 : 350.78739 : 1"
       id="perspective10" />
    <inkscape:perspective
       id="perspective2552"
       inkscape:persp3d-origin="372.04724 : 350.78739 : 1"
       inkscape:vp_z="744.09448 : 526.18109 : 1"
       inkscape:vp_y="0 : 1000 : 0"
       inkscape:vp_x="0 : 526.18109 : 1"
       sodipodi:type="inkscape:persp3d" />
    <inkscape:perspective
       id="perspective15"
       inkscape:persp3d-origin="253.39476 : 230.14069 : 1"
       inkscape:vp_z="506.78952 : 345.21103 : 1"
       inkscape:vp_y="0 : 1000 : 0"
       inkscape:vp_x="0 : 345.21103 : 1"
       sodipodi:type="inkscape:persp3d" />
  </defs>
  <sodipodi:namedview
     id="base"
     pagecolor="#ffffff"
     bordercolor="#666666"
     borderopacity="1.0"
     gridtolerance="10000"
     guidetolerance="10"
     objecttolerance="10"
     inkscape:pageopacity="0.0"
     inkscape:pageshadow="2"
     inkscape:zoom="0.044194174"
     inkscape:cx="1071.8807"
     inkscape:cy="310.35133"
     inkscape:document-units="px"
     inkscape:current-layer="layer1"
     showgrid="false"
     inkscape:window-width="1014"
     inkscape:window-height="722"
     inkscape:window-x="4"
     inkscape:window-y="6"
     width="480px"
     units="cm" />
  <metadata
     id="metadata7">
    <rdf:RDF>
      <cc:Work
         rdf:about="">
        <dc:format>image/svg+xml</dc:format>
        <dc:type
           rdf:resource="http://purl.org/dc/dcmitype/StillImage" />
      </cc:Work>
    </rdf:RDF>
  </metadata>
  <g
     inkscape:label="Layer 1"
     inkscape:groupmode="layer"
     id="layer1"
     transform="translate(-165.12994,-265.81)">
    <g
       transform="matrix(1.9102397,0,0,1.9102397,6883.933,-381.33236)"
       id="g2444"
       inkscape:label="Calque 1">
      <path
         sodipodi:nodetypes="cccccscccccc"
         id="path2170"
         d="M 544.06424,391.18215 C 544.06424,391.18215 497.69233,387.41332 447.77284,393.6319 C 447.77284,393.6319 445.23886,401.16956 453.34761,403.43087 L 460.94956,466.37043 L 382.90285,758.83211 C 382.90285,758.83211 365.39536,795.70236 419.866,803.69727 C 474.33664,811.69217 556.04261,823.95104 619.83059,783.9765 C 619.83059,783.9765 634.88169,768.51967 608.36309,697.63148 L 594.59185,653.82798 L 535.97448,467.37812 L 538.84135,403.68535 C 538.84135,403.68535 550.30885,394.62445 544.06424,391.18215 z"
         style="opacity:1;fill:#ffffff;fill-opacity:1;fill-rule:evenodd;stroke:#957676;stroke-width:21.6323452;stroke-linecap:butt;stroke-linejoin:miter;stroke-miterlimit:4;stroke-dasharray:none;stroke-opacity:1" />
      <path
         transform="matrix(-1.106165,0,0,0.804405,788.7578,202.79476)"
         d="M 354.28572,716.4693 A 88.928574,25.178572 0 1 1 176.42857,716.4693 A 88.928574,25.178572 0 1 1 354.28572,716.4693 z"
         sodipodi:ry="25.178572"
         sodipodi:rx="88.928574"
         sodipodi:cy="716.4693"
         sodipodi:cx="265.35715"
         id="path2172"
         style="opacity:0.46587536;fill:#d3d7cf;fill-opacity:1;fill-rule:evenodd;stroke:#eeeeec;stroke-width:0;stroke-linecap:round;stroke-linejoin:round;marker:none;marker-start:none;marker-mid:none;marker-end:none;stroke-miterlimit:4;stroke-dasharray:none;stroke-dashoffset:0;stroke-opacity:1;visibility:visible;display:inline;overflow:visible;enable-background:accumulate"
         sodipodi:type="arc" />
      <path
         id="path5156"
         d="M 421.27704,694.32316 C 495.86254,726.8754 551.51137,717.56085 587.99931,700.8057 L 588.09338,701.15548 C 588.1606,701.36646 588.23379,701.57637 588.31288,701.78508 C 601.19545,736.22213 603.60784,756.43923 603.23855,766.98355 C 603.10367,770.83477 602.65288,773.03012 602.23514,774.53874 C 547.31747,806.29683 477.08949,796.31636 423.87963,788.50651 C 403.01705,785.44441 402.74064,781.07409 401.42841,775.56476 C 400.11617,770.05542 402.49452,763.97547 402.49452,763.97547 C 402.8247,763.27528 403.08668,762.55833 403.27844,761.83017 L 421.27704,694.32316 z"
         style="opacity:1;fill:#957676;fill-opacity:1;fill-rule:evenodd;stroke:none;stroke-width:25;stroke-linecap:butt;stroke-linejoin:miter;stroke-miterlimit:4;stroke-dasharray:none;stroke-opacity:1" />
      <path
         id="path2176"
         d="M 330.44937,487.66435 L 332.72996,435.08909 C 332.72996,435.08909 332.47656,428.30519 337.03773,426.23233 L 333.74356,420.20219 C 333.74356,420.20219 306.37652,415.3027 240.49293,421.70972 C 240.49293,421.70972 230.1036,421.1444 228.83661,428.49363 C 228.83661,428.49363 234.66477,433.39312 234.15797,441.68455 L 241.75993,491.62163 C 241.75993,491.62163 161.93942,730.94272 140.65396,829.68622 C 140.65396,829.68622 150.2831,870.76653 205.52395,877.92732 C 260.76481,885.08811 373.27371,904.30918 461.45636,844.00779 C 461.45636,844.00779 491.37548,827.80686 451.32042,758.45522 L 340.3102,511.61662 C 340.3102,511.61662 330.27613,498.82476 328.84269,494.5608 C 327.40925,490.29686 330.27613,488.16488 330.44937,487.66435 z"
         style="opacity:1;fill:#ffffff;fill-opacity:1;fill-rule:evenodd;stroke:#7ca3b0;stroke-width:21.6323452;stroke-linecap:butt;stroke-linejoin:miter;stroke-miterlimit:4;stroke-dasharray:none;stroke-opacity:1" />
      <path
         transform="matrix(-1.1239359,0,0,0.8201384,812.95558,171.26851)"
         d="M 577.14287,815.57648 A 118.92857,39.642857 0 1 1 339.28572,815.57648 A 118.92857,39.642857 0 1 1 577.14287,815.57648 z"
         sodipodi:ry="39.642857"
         sodipodi:rx="118.92857"
         sodipodi:cy="815.57648"
         sodipodi:cx="458.21429"
         id="path2178"
         style="opacity:0.46587536;fill:#d3d7cf;fill-opacity:1;fill-rule:evenodd;stroke:#eeeeec;stroke-width:0;stroke-linecap:round;stroke-linejoin:round;marker:none;marker-start:none;marker-mid:none;marker-end:none;stroke-miterlimit:4;stroke-dasharray:none;stroke-dashoffset:0;stroke-opacity:1;visibility:visible;display:inline;overflow:visible;enable-background:accumulate"
         sodipodi:type="arc" />
      <path
         id="path5137"
         d="M 514.62521,407.92555 L 511.99127,466.80472 C 511.91638,468.36422 512.11668,469.92431 512.58704,471.4451 L 541.30955,562.80692 C 531.29388,563.38169 521.10086,566.48102 510.89379,572.90382 C 491.49168,585.11258 473.26134,583.02829 456.89797,573.2536 L 484.49165,469.83612 C 484.93989,468.1713 485.06659,466.46744 484.86793,464.77601 L 478.12629,408.90493 C 491.50013,408.09303 504.0675,407.83083 514.31164,407.92555 C 514.44403,407.92678 514.49363,407.92424 514.62521,407.92555 z"
         style="opacity:0.28486645;fill:#957676;fill-opacity:1;fill-rule:evenodd;stroke:none;stroke-width:25;stroke-linecap:butt;stroke-linejoin:miter;stroke-miterlimit:4;stroke-dasharray:none;stroke-opacity:1" />
      <path
         id="path5147"
         d="M 299.14365,438.30953 C 301.83097,438.29517 303.58744,438.35583 305.82257,438.37949 L 303.87847,483.03439 C 301.82745,487.30192 300.91986,493.56461 302.87507,499.38064 C 305.62881,507.57194 308.57271,509.96661 311.52945,514.07129 C 313.7142,517.10426 314.80767,518.47454 315.73121,519.66772 L 373.30167,647.68619 C 338.79399,637.28871 303.12824,640.16353 278.66788,677.37062 C 278.66788,677.37061 232.80235,720.01014 244.26985,602.75148 C 245.36807,591.52187 244.79773,581.55742 242.89017,572.69395 C 257.21712,527.99895 267.72448,496.39588 267.72448,496.39588 C 268.49247,494.10252 268.70483,491.72576 268.35161,489.37701 L 260.85742,440.1517 C 276.07512,439.02986 289.41234,438.36154 299.14365,438.30953 z M 307.32768,477.71777 C 307.25468,477.80831 307.08226,478.00817 306.82598,478.34737 C 306.86745,478.28691 306.91696,478.18027 306.95141,478.1375 C 307.30449,477.69915 307.55072,477.44119 307.32768,477.71777 z M 306.70055,478.5106 C 306.44104,478.91427 306.13166,479.45211 305.85393,479.83975 C 306.1783,479.25715 306.46193,478.83862 306.70055,478.5106 z"
         style="opacity:0.28486645;fill:#7ca3b0;fill-opacity:1;fill-rule:evenodd;stroke:none;stroke-width:25;stroke-linecap:butt;stroke-linejoin:miter;stroke-miterlimit:4;stroke-dasharray:none;stroke-opacity:1" />
      <path
         id="path5169"
         d="M 414.59812,733.14844 L 428.52038,764.11538 C 428.72408,764.58867 428.95424,765.05545 429.21022,765.51449 C 448.11291,798.24274 449.21153,816.47536 447.61646,824.67348 C 446.82953,828.71806 445.52331,830.40022 445.10795,830.89952 C 366.30882,884.73605 266.60356,867.70992 209.65233,860.32744 C 175.10162,855.84869 166.91456,835.35237 165.15752,829.2439 C 170.11558,806.84893 178.03343,777.30341 187.26382,745.0875 C 289.62719,765.6274 364.29674,752.6123 414.59812,733.14844 z"
         style="opacity:1;fill:#7ca3b0;fill-opacity:1;fill-rule:evenodd;stroke:none;stroke-width:25;stroke-linecap:butt;stroke-linejoin:miter;stroke-miterlimit:4;stroke-dasharray:none;stroke-opacity:1" />
    </g>
    <text
       xml:space="preserve"
       style="font-size:972.44177246px;font-style:normal;font-weight:normal;fill:#957676;fill-opacity:1;stroke:none;stroke-width:1px;stroke-linecap:butt;stroke-linejoin:miter;stroke-opacity:1;font-family:Bitstream Vera Sans"
       x="2836.5515"
       y="1129.3461"
       id="text2387"
       transform="scale(0.998299,1.0017038)"><tspan
         sodipodi:role="line"
         id="tspan2389"
         x="2836.5515"
         y="1129.3461"
         style="font-style:normal;font-variant:normal;font-weight:bold;font-stretch:normal;fill:#957676;fill-opacity:1;font-family:Arial;-inkscape-font-specification:Arial">Australia</tspan></text>
    <text
       xml:space="preserve"
       style="font-size:983.21386719px;font-style:normal;font-weight:normal;fill:#7ca3b0;fill-opacity:1;stroke:none;stroke-width:1px;stroke-linecap:butt;stroke-linejoin:miter;stroke-opacity:1;font-family:Bitstream Vera Sans"
       x="242.30083"
       y="1154.5087"
       id="text2383"
       transform="scale(1.0214072,0.9790415)"><tspan
         sodipodi:role="line"
         id="tspan2385"
         x="242.30083"
         y="1154.5087"
         style="font-style:normal;font-variant:normal;font-weight:bold;font-stretch:normal;fill:#7ca3b0;fill-opacity:1;font-family:Arial;-inkscape-font-specification:Arial">Open</tspan></text>
  </g>
</svg>
