<?xml version="1.0" encoding="UTF-8" standalone="no"?>
<!-- Created with Inkscape (http://www.inkscape.org/) -->
<svg
   xmlns:dc="http://purl.org/dc/elements/1.1/"
   xmlns:cc="http://creativecommons.org/ns#"
   xmlns:rdf="http://www.w3.org/1999/02/22-rdf-syntax-ns#"
   xmlns:svg="http://www.w3.org/2000/svg"
   xmlns="http://www.w3.org/2000/svg"
   xmlns:sodipodi="http://sodipodi.sourceforge.net/DTD/sodipodi-0.dtd"
   xmlns:inkscape="http://www.inkscape.org/namespaces/inkscape"
   width="518.15997"
   height="518.16461"
   id="svg2"
   sodipodi:version="0.32"
   inkscape:version="0.46"
   sodipodi:docbase="/home/pierre/mes_documents/Images/Vectoriel/Images perso"
   sodipodi:docname="labs.svg"
   inkscape:output_extension="org.inkscape.output.svg.inkscape"
   version="1.0"
   sodipodi:modified="true">
  <defs
     id="defs4">
    <inkscape:perspective
       sodipodi:type="inkscape:persp3d"
       inkscape:vp_x="0 : 345.21103 : 1"
       inkscape:vp_y="0 : 1000 : 0"
       inkscape:vp_z="506.78952 : 345.21103 : 1"
       inkscape:persp3d-origin="253.39476 : 230.14069 : 1"
       id="perspective15" />
  </defs>
  <sodipodi:namedview
     id="base"
     pagecolor="#ffffff"
     bordercolor="#666666"
     borderopacity="1.0"
     inkscape:pageopacity="0.0"
     inkscape:pageshadow="2"
     inkscape:zoom="0.35"
     inkscape:cx="37.175702"
     inkscape:cy="309.7008"
     inkscape:document-units="px"
     inkscape:current-layer="layer1"
     inkscape:window-width="784"
     inkscape:window-height="722"
     inkscape:window-x="230"
     inkscape:window-y="6"
     showgrid="false" />
  <metadata
     id="metadata7">
    <rdf:RDF>
      <cc:Work
         rdf:about="">
        <dc:format>image/svg+xml</dc:format>
        <dc:type
           rdf:resource="http://purl.org/dc/dcmitype/StillImage" />
      </cc:Work>
    </rdf:RDF>
  </metadata>
  <g
     inkscape:label="Calque 1"
     inkscape:groupmode="layer"
     id="layer1"
     transform="translate(-129.83779,-379.23441)">
    <path
       style="opacity:1;fill:#ffffff;fill-opacity:1;fill-rule:evenodd;stroke:#957676;stroke-width:20.30455208;stroke-linecap:butt;stroke-linejoin:miter;stroke-miterlimit:4;stroke-dasharray:none;stroke-opacity:1"
       d="M 544.93418,407.55968 C 544.93418,407.55968 501.18065,404.04061 454.07985,409.84708 C 454.07985,409.84708 451.68895,416.88523 459.33984,418.99668 L 466.51255,477.76525 L 392.87273,750.84559 C 392.87273,750.84559 376.35379,785.27246 427.74876,792.73755 C 479.14373,800.20263 556.23619,811.64911 616.4224,774.32367 C 616.4224,774.32367 630.62364,759.89116 605.60241,693.70071 L 592.60876,652.80005 L 537.3012,478.70617 L 540.0062,419.23429 C 540.0062,419.23429 550.82619,410.77386 544.93418,407.55968 z"
       id="path2170"
       sodipodi:nodetypes="cccccscccccc" />
    <path
       sodipodi:type="arc"
       style="opacity:0.46587536;fill:#d3d7cf;fill-opacity:1;fill-rule:evenodd;stroke:#eeeeec;stroke-width:0;stroke-linecap:round;stroke-linejoin:round;marker:none;marker-start:none;marker-mid:none;marker-end:none;stroke-miterlimit:4;stroke-dasharray:none;stroke-dashoffset:0;stroke-opacity:1;visibility:visible;display:inline;overflow:visible;enable-background:accumulate"
       id="path2172"
       sodipodi:cx="265.35715"
       sodipodi:cy="716.4693"
       sodipodi:rx="88.928574"
       sodipodi:ry="25.178572"
       d="M 354.28572,716.4693 A 88.928574,25.178572 0 1 1 176.42857,716.4693 A 88.928574,25.178572 0 1 1 354.28572,716.4693 z"
       transform="matrix(-1.0437057,0,0,0.7510973,775.81118,231.65666)" />
    <path
       style="opacity:1;fill:#957676;fill-opacity:1;fill-rule:evenodd;stroke:none;stroke-width:25;stroke-linecap:butt;stroke-linejoin:miter;stroke-miterlimit:4;stroke-dasharray:none;stroke-opacity:1"
       d="M 429.08013,690.61163 C 499.45418,721.00664 551.96081,712.30937 586.38847,696.66457 L 586.47722,696.99118 C 586.54065,697.18817 586.60971,697.38417 586.68433,697.57905 C 598.83949,729.73397 601.11566,748.61129 600.76723,758.45684 C 600.63996,762.05284 600.21463,764.10271 599.82047,765.51135 C 548.00372,795.16484 481.74114,785.84577 431.53576,778.55348 C 411.85118,775.6943 411.59038,771.6136 410.35224,766.46938 C 409.1141,761.32514 411.35816,755.6481 411.35816,755.6481 C 411.66969,754.99432 411.91688,754.32488 412.09781,753.64497 L 429.08013,690.61163 z"
       id="path5156" />
    <path
       style="opacity:1;fill:#ffffff;fill-opacity:1;fill-rule:evenodd;stroke:#7ca3b0;stroke-width:20.30455208;stroke-linecap:butt;stroke-linejoin:miter;stroke-miterlimit:4;stroke-dasharray:none;stroke-opacity:1"
       d="M 343.38102,497.64803 L 345.53284,448.55692 C 345.53284,448.55692 345.29374,442.22259 349.59737,440.28709 L 346.4892,434.65657 C 346.4892,434.65657 320.66744,430.08177 258.50395,436.0642 C 258.50395,436.0642 248.70125,435.53634 247.5058,442.39854 C 247.5058,442.39854 253.00487,446.97334 252.52669,454.7153 L 259.69941,501.34307 C 259.69941,501.34307 184.38594,724.80442 164.30236,817.00422 C 164.30236,817.00422 173.38779,855.36216 225.50948,862.0484 C 277.63118,868.73465 383.78729,886.68194 466.99073,830.37671 C 466.99073,830.37671 495.22048,815.24941 457.42711,750.49368 L 352.68506,520.01299 C 352.68506,520.01299 343.21756,508.06885 341.86506,504.08746 C 340.51256,500.10609 343.21756,498.11539 343.38102,497.64803 z"
       id="path2176" />
    <path
       sodipodi:type="arc"
       style="opacity:0.46587536;fill:#d3d7cf;fill-opacity:1;fill-rule:evenodd;stroke:#eeeeec;stroke-width:0;stroke-linecap:round;stroke-linejoin:round;marker:none;marker-start:none;marker-mid:none;marker-end:none;stroke-miterlimit:4;stroke-dasharray:none;stroke-dashoffset:0;stroke-opacity:1;visibility:visible;display:inline;overflow:visible;enable-background:accumulate"
       id="path2178"
       sodipodi:cx="458.21429"
       sodipodi:cy="815.57648"
       sodipodi:rx="118.92857"
       sodipodi:ry="39.642857"
       d="M 577.14287,815.57648 A 118.92857,39.642857 0 1 1 339.28572,815.57648 A 118.92857,39.642857 0 1 1 577.14287,815.57648 z"
       transform="matrix(-1.0604731,0,0,0.7657881,798.64264,202.21964)" />
    <path
       style="opacity:0.28486645;fill:#957676;fill-opacity:1;fill-rule:evenodd;stroke:none;stroke-width:25;stroke-linecap:butt;stroke-linejoin:miter;stroke-miterlimit:4;stroke-dasharray:none;stroke-opacity:1"
       d="M 517.15742,423.1935 L 514.6722,478.17076 C 514.60154,479.62692 514.79053,481.08362 515.23433,482.50363 L 542.33503,567.81093 C 532.88489,568.34761 523.26742,571.24155 513.63669,577.23871 C 495.33011,588.6384 478.12915,586.69224 462.68973,577.56531 L 488.72534,481.00127 C 489.14827,479.44678 489.26782,477.85584 489.08037,476.2765 L 482.7194,424.10797 C 495.33809,423.34988 507.19584,423.10506 516.86155,423.1935 C 516.98647,423.19465 517.03327,423.19227 517.15742,423.1935 z"
       id="path5137" />
    <path
       style="opacity:0.28486645;fill:#7ca3b0;fill-opacity:1;fill-rule:evenodd;stroke:none;stroke-width:25;stroke-linecap:butt;stroke-linejoin:miter;stroke-miterlimit:4;stroke-dasharray:none;stroke-opacity:1"
       d="M 313.84297,451.56394 C 316.37855,451.55053 318.03584,451.60717 320.14476,451.62927 L 318.31044,493.3249 C 316.37523,497.30962 315.51889,503.15729 317.36369,508.58789 C 319.96195,516.23635 322.73962,518.47233 325.52941,522.30499 C 327.5908,525.13697 328.62252,526.41644 329.49392,527.53055 L 383.81367,647.06528 C 351.25446,637.35684 317.60257,640.04114 294.52336,674.78253 C 294.52336,674.78252 251.24761,714.59634 262.0676,605.10838 C 263.10381,594.62295 262.56568,585.31884 260.76583,577.04275 C 274.28381,535.30967 284.19787,505.80093 284.19787,505.80093 C 284.9225,503.65955 285.12287,501.4403 284.78959,499.2472 L 277.71856,453.28403 C 292.077,452.23654 304.66113,451.6125 313.84297,451.56394 z M 321.56489,488.36061 C 321.49601,488.44515 321.33333,488.63177 321.09152,488.94849 C 321.13065,488.89203 321.17736,488.79246 321.20987,488.75252 C 321.54301,488.34322 321.77534,488.10236 321.56489,488.36061 z M 320.97317,489.1009 C 320.72831,489.47782 320.4364,489.98002 320.17435,490.34197 C 320.48041,489.79798 320.74802,489.40718 320.97317,489.1009 z"
       id="path5147" />
    <path
       style="opacity:1;fill:#7ca3b0;fill-opacity:1;fill-rule:evenodd;stroke:none;stroke-width:25;stroke-linecap:butt;stroke-linejoin:miter;stroke-miterlimit:4;stroke-dasharray:none;stroke-opacity:1"
       d="M 422.77833,726.86397 L 435.91447,755.77874 C 436.10667,756.22067 436.32384,756.65651 436.56536,757.08513 C 454.40072,787.64449 455.4373,804.66884 453.9323,812.32368 C 453.1898,816.10022 451.95734,817.67091 451.56543,818.13712 C 377.21567,868.40592 283.14025,852.50811 229.40475,845.61486 C 196.80494,841.43292 189.08016,822.29488 187.42233,816.59122 C 192.10044,795.68035 199.57121,768.09281 208.28041,738.01183 C 304.86385,757.19056 375.31721,745.03797 422.77833,726.86397 z"
       id="path5169" />
  </g>
</svg>
